# Blender 4.2.1 LTS
# www.blender.org
mtllib torch.mtl
o Cube.001
v 0.122212 0.624303 0.122242
v 0.122212 -0.624303 0.122242
v 0.122212 0.624303 -0.122242
v 0.122212 -0.624303 -0.122242
v -0.122212 0.624303 0.122242
v -0.122212 -0.624303 0.122242
v -0.122212 0.624303 -0.122242
v -0.122212 -0.624303 -0.122242
vn 1.0000 -0.0000 -0.0000
vn -0.0000 -0.0000 -1.0000
vn -1.0000 -0.0000 -0.0000
vn -0.0000 -0.0000 1.0000
vn -0.0000 1.0000 -0.0000
vn -0.0000 -1.0000 -0.0000
vt 0.000000 0.000000
vt 0.200029 1.000000
vt 0.000000 1.000000
vt 0.400059 0.000000
vt 0.600039 1.000000
vt 0.400059 1.000000
vt 0.200029 0.000000
vt 0.600039 0.000000
vt 0.800020 1.000000
vt 1.000000 0.195805
vt 0.800020 0.391610
vt 0.800020 0.195805
vt 1.000000 0.000000
vt 0.800020 0.000000
vt 1.000000 0.391610
s 0
usemtl Material.002
f 2/1/1 3/2/1 1/3/1
f 4/4/2 7/5/2 3/6/2
f 8/6/3 5/7/3 7/4/3
f 6/8/4 1/9/4 5/5/4
f 7/10/5 1/11/5 3/12/5
f 4/12/6 6/13/6 8/10/6
f 2/1/1 4/7/1 3/2/1
f 4/4/2 8/8/2 7/5/2
f 8/6/3 6/2/3 5/7/3
f 6/8/4 2/14/4 1/9/4
f 7/10/5 5/15/5 1/11/5
f 4/12/6 2/14/6 6/13/6
